Coordinates
version=1
nRows=6
nColumns=63
inDegrees=yes

Units are S.I. units (second, meters, Newtons, ...)
If the header above contains a line with 'inDegrees', this indicates whether rotational values are in degrees (yes) or radians (no).

endheader
time	pelvis_tilt	pelvis_list	pelvis_rotation	pelvis_tx	pelvis_ty	pelvis_tz	hip_flexion_r	hip_adduction_r	hip_rotation_r	knee_angle_r	knee_angle_r_beta	ankle_angle_r	subtalar_angle_r	mtp_angle_r	hip_flexion_l	hip_adduction_l	hip_rotation_l	knee_angle_l	knee_angle_l_beta	ankle_angle_l	subtalar_angle_l	mtp_angle_l	L5_S1_Flex_Ext	L5_S1_Lat_Bending	L5_S1_axial_rotation	L4_L5_Flex_Ext	L4_L5_Lat_Bending	L4_L5_axial_rotation	L3_L4_Flex_Ext	L3_L4_Lat_Bending	L3_L4_axial_rotation	L2_L3_Flex_Ext	L2_L3_Lat_Bending	L2_L3_axial_rotation	L1_L2_Flex_Ext	L1_L2_Lat_Bending	L1_L2_axial_rotation	L1_T12_Flex_Ext	L1_T12_Lat_Bending	L1_T12_axial_rotation	Abs_r3	Abs_r2	Abs_r1	Abs_t1	Abs_t2	neck_flexion	neck_bending	neck_rotation	arm_flex_r	arm_add_r	arm_rot_r	elbow_flex_r	pro_sup_r	wrist_flex_r	wrist_dev_r	arm_flex_l	arm_add_l	arm_rot_l	elbow_flex_l	pro_sup_l	wrist_flex_l	wrist_dev_l
      0.00000000	     -3.85992950	     -2.33295328	     85.03988999	      0.21671393	      0.86288621	      0.52499046	      3.68564665	     -4.29616874	     -7.74085348	     11.82778901	      0.20643386	     43.52427794	     15.55113160	      0.00000000	      2.48108112	      3.84000666	     14.12025435	      3.32569231	      0.05804428	     36.36211779	    -16.99453299	      0.00000000	      0.30922416	     -0.47599475	      0.67576076	      0.57426019	     -0.63307301	      0.71799581	      0.50802437	     -1.15733362	      0.71799581	      0.35341229	     -1.15733362	      0.59129066	      0.28714555	     -0.97064848	      0.54905562	      0.17669068	     -0.73731586	      0.50682057	      2.20875725	     -5.38454776	      3.75837861	      0.00000000	      0.00000000	     18.91536136	      1.28484393	     -8.94588780	     17.00318344	     -9.34154022	     75.76590177	     50.80351042	     12.81423101	     -7.07421940	      6.35743097	     18.25834490	    -15.61530506	     72.58503884	     56.80068707	     64.04341103	      2.34192120	      8.36459196
      0.01724138	     -3.91183260	     -2.16542466	     85.10743872	      0.21669687	      0.86278182	      0.52431741	      3.59460463	     -4.42608527	     -7.71123108	     12.60856542	      0.22006098	     43.12953423	     15.21215282	      0.00000000	      2.23643620	      3.95078074	     14.08171080	      3.44983644	      0.06021100	     36.06453848	    -17.15711483	      0.00000000	      0.30477736	     -0.50246048	      0.71971938	      0.56600204	     -0.66827244	      0.76470184	      0.50071873	     -1.22168241	      0.76470184	      0.34833005	     -1.22168241	      0.62975445	      0.28301626	     -1.02461741	      0.58477199	      0.17414979	     -0.77831128	      0.53978953	      2.17699422	     -5.68393344	      4.00286326	      0.00000000	      0.00000000	     17.68525293	      1.37367141	     -8.57556488	     16.94871903	     -9.48522974	     75.42412800	     51.02412503	     12.61232474	     -6.96425180	      6.71297329	     18.47886685	    -15.69846540	     72.25679253	     56.96363232	     63.88427602	      2.34442375	      8.62613587
      0.03448276	     -4.11706989	     -2.24931119	     84.63976606	      0.21779948	      0.86245636	      0.52363400	      4.14726407	     -4.49312011	     -5.73680144	     13.63230670	      0.23792864	     43.00348873	     13.33045711	      0.00000000	      2.14238572	      4.11475689	     13.99635478	      3.27989972	      0.05724505	     35.71220567	    -17.60795498	      0.00000000	      0.33712764	     -0.53631832	      0.83102720	      0.62607974	     -0.71330337	      0.88296640	      0.55386700	     -1.30400437	      0.88296640	      0.38530318	     -1.30400437	      0.72714880	      0.31305673	     -1.09366033	      0.67520960	      0.19263473	     -0.83075708	      0.62327040	      2.40806902	     -6.06694015	      4.62192399	      0.00000000	      0.00000000	     17.08041096	      1.77354385	     -7.39226765	     16.26855931	     -9.27393097	     73.08391468	     51.10274022	     10.98028609	     -7.16530065	     10.18986210	     18.23454972	    -15.88123353	     71.22679054	     57.54062658	     62.84828801	      2.11534089	     10.80801222
      0.05172414	     -4.19699776	     -2.30208189	     84.51562724	      0.21816234	      0.86247208	      0.52338394	      4.50139978	     -4.55574443	     -5.38799091	     14.24500535	      0.24862225	     43.04400582	     12.96895054	      0.00000000	      2.15598041	      4.18690481	     14.02604525	      3.24019859	      0.05655213	     35.60694916	    -17.77047512	      0.00000000	      0.33823141	     -0.55563914	      0.86757240	      0.62812955	     -0.73900006	      0.92179567	      0.55568038	     -1.35098102	      0.92179567	      0.38656468	     -1.35098102	      0.75912585	      0.31408169	     -1.13305934	      0.70490257	      0.19326543	     -0.86068503	      0.65067930	      2.41595312	     -6.28550113	      4.82517739	      0.00000000	      0.00000000	     16.85192276	      1.74442085	     -7.21926332	     16.23808346	     -9.24962685	     72.61753780	     51.17820985	     10.78962882	     -7.19332530	     10.55144006	     18.18856488	    -16.00160964	     70.89237257	     57.74977683	     62.80477230	      1.59003993	     10.61277287
      0.06896552	     -4.18954565	     -2.31773050	     84.47726316	      0.21842322	      0.86269448	      0.52314712	      4.66690369	     -4.52378659	     -5.27756862	     14.46570410	      0.25247417	     43.12199198	     12.90024882	      0.00000000	      2.14580144	      4.15917193	     14.16445691	      3.19131682	      0.05569899	     35.65497526	    -17.77190762	      0.00000000	      0.32533161	     -0.56310048	      0.88679474	      0.60417333	     -0.74892363	      0.94221941	      0.53448730	     -1.36912250	      0.94221941	      0.37182150	     -1.36912250	      0.77594539	      0.30210293	     -1.14827449	      0.72052072	      0.18589448	     -0.87224264	      0.66509605	      2.32381116	     -6.36990520	      4.93208629	      0.00000000	      0.00000000	     16.85453176	      1.68649067	     -7.21738894	     16.32232362	     -9.27568917	     72.44080482	     51.26208634	     10.74581057	     -7.17525447	     10.65721714	     18.17371492	    -16.09001412	     70.72218161	     57.95922263	     62.81973034	      1.25643925	     10.37303487
      0.08620690	     -4.24796642	     -2.44982098	     84.31693570	      0.21873979	      0.86277430	      0.52322860	      5.11196905	     -4.55694727	     -5.16152034	     14.81543991	      0.25857821	     43.40437566	     12.84584248	      0.00000000	      2.25629020	      4.19319385	     14.17626570	      3.03786770	      0.05302079	     35.61621037	    -17.90756487	      0.00000000	      0.32006877	     -0.57419114	      0.89630529	      0.59439971	     -0.76367422	      0.95232437	      0.52584098	     -1.39608835	      0.95232437	      0.36580660	     -1.39608835	      0.78426713	      0.29721586	     -1.17089058	      0.72824805	      0.18288730	     -0.88942208	      0.67222897	      2.28621922	     -6.49536506	      4.98498115	      0.00000000	      0.00000000	     17.29513017	      1.50250341	     -7.38753343	     16.42726720	     -9.22697716	     72.26149184	     51.31199159	     10.73819236	     -7.14957781	     10.80401430	     17.96932676	    -16.24590124	     70.53824146	     58.23981480	     63.07612324	     -0.19662444	      9.40294541
